<svg width="249" height="35" viewBox="0 0 249 35" fill="none" xmlns="http://www.w3.org/2000/svg">
<path d="M17.794 27.364L26.0667 32.189C27.1336 32.8072 28.4467 31.8874 28.1349 30.7566L25.7384 22.1018C25.6736 21.8619 25.6839 21.6101 25.7681 21.3753C25.8524 21.1406 26.0071 20.9325 26.2144 20.775L33.6335 15.0906C34.602 14.3517 34.1096 12.859 32.8457 12.7836L23.1614 12.2107C22.8972 12.1965 22.6431 12.112 22.4304 11.9674C22.2176 11.8228 22.0552 11.6244 21.9632 11.3965L18.3521 3.04327C18.2565 2.80187 18.0824 2.59335 17.8534 2.44599C17.6243 2.29864 17.3515 2.2196 17.0718 2.2196C16.7922 2.2196 16.5193 2.29864 16.2903 2.44599C16.0613 2.59335 15.8871 2.80187 15.7915 3.04327L12.1805 11.3965C12.0884 11.6244 11.9261 11.8228 11.7133 11.9674C11.5005 12.112 11.2465 12.1965 10.9822 12.2107L1.29798 12.7836C0.0341032 12.859 -0.458317 14.3517 0.510109 15.0906L7.92924 20.775C8.1366 20.9325 8.2913 21.1406 8.37552 21.3753C8.45974 21.6101 8.47004 21.8619 8.40524 22.1018L6.18935 30.1233C5.81183 31.4803 7.38757 32.581 8.65145 31.8422L16.3496 27.364C16.5655 27.2379 16.816 27.171 17.0718 27.171C17.3276 27.171 17.5782 27.2379 17.794 27.364Z" fill="#FFA43C"/>
<path d="M70.9463 27.364L79.2189 32.189C80.2859 32.8072 81.599 31.8874 81.2871 30.7566L78.8907 22.1018C78.8259 21.8619 78.8362 21.6101 78.9204 21.3754C79.0046 21.1406 79.1593 20.9325 79.3667 20.775L86.7858 15.0906C87.7542 14.3518 87.2618 12.859 85.9979 12.7837L76.3137 12.2107C76.0494 12.1966 75.7954 12.112 75.5826 11.9675C75.3698 11.8229 75.2075 11.6245 75.1154 11.3965L71.5044 3.04329C71.4088 2.8019 71.2346 2.59337 71.0056 2.44602C70.7766 2.29866 70.5037 2.21962 70.2241 2.21962C69.9444 2.21962 69.6716 2.29866 69.4426 2.44602C69.2135 2.59337 69.0394 2.8019 68.9438 3.04329L65.3327 11.3965C65.2407 11.6245 65.0783 11.8229 64.8656 11.9675C64.6528 12.112 64.3987 12.1966 64.1345 12.2107L54.4502 12.7837C53.1864 12.859 52.6939 14.3518 53.6624 15.0906L61.0815 20.775C61.2889 20.9325 61.4436 21.1406 61.5278 21.3754C61.612 21.6101 61.6223 21.8619 61.5575 22.1018L59.3416 30.1233C58.9641 31.4803 60.5398 32.581 61.8037 31.8422L69.5019 27.364C69.7177 27.238 69.9683 27.171 70.2241 27.171C70.4799 27.171 70.7304 27.238 70.9463 27.364Z" fill="#FFA43C"/>
<path d="M124.099 27.364L132.371 32.189C133.438 32.8072 134.751 31.8874 134.439 30.7566L132.043 22.1018C131.978 21.8619 131.988 21.6101 132.073 21.3754C132.157 21.1406 132.312 20.9325 132.519 20.775L139.938 15.0906C140.906 14.3518 140.414 12.859 139.15 12.7837L129.466 12.2107C129.202 12.1966 128.948 12.112 128.735 11.9675C128.522 11.8229 128.36 11.6245 128.268 11.3965L124.657 3.04329C124.561 2.8019 124.387 2.59337 124.158 2.44602C123.929 2.29866 123.656 2.21962 123.376 2.21962C123.097 2.21962 122.824 2.29866 122.595 2.44602C122.366 2.59337 122.192 2.8019 122.096 3.04329L118.485 11.3965C118.393 11.6245 118.231 11.8229 118.018 11.9675C117.805 12.112 117.551 12.1966 117.287 12.2107L107.602 12.7837C106.339 12.859 105.846 14.3518 106.815 15.0906L114.234 20.775C114.441 20.9325 114.596 21.1406 114.68 21.3754C114.764 21.6101 114.775 21.8619 114.71 22.1018L112.494 30.1233C112.116 31.4803 113.692 32.581 114.956 31.8422L122.654 27.364C122.87 27.238 123.121 27.171 123.376 27.171C123.632 27.171 123.883 27.238 124.099 27.364Z" fill="#FFA43C"/>
<path d="M177.251 27.364L185.523 32.189C186.59 32.8072 187.903 31.8874 187.592 30.7566L185.195 22.1018C185.13 21.8619 185.141 21.6101 185.225 21.3754C185.309 21.1406 185.464 20.9325 185.671 20.775L193.09 15.0906C194.059 14.3518 193.566 12.859 192.302 12.7837L182.618 12.2107C182.354 12.1966 182.1 12.112 181.887 11.9675C181.674 11.8229 181.512 11.6245 181.42 11.3965L177.809 3.04329C177.713 2.8019 177.539 2.59337 177.31 2.44602C177.081 2.29866 176.808 2.21962 176.529 2.21962C176.249 2.21962 175.976 2.29866 175.747 2.44602C175.518 2.59337 175.344 2.8019 175.248 3.04329L171.637 11.3965C171.545 11.6245 171.383 11.8229 171.17 11.9675C170.957 12.112 170.703 12.1966 170.439 12.2107L160.755 12.7837C159.491 12.859 158.998 14.3518 159.967 15.0906L167.386 20.775C167.593 20.9325 167.748 21.1406 167.832 21.3754C167.916 21.6101 167.927 21.8619 167.862 22.1018L165.646 30.1233C165.269 31.4803 166.844 32.581 168.108 31.8422L175.806 27.364C176.022 27.238 176.273 27.171 176.529 27.171C176.784 27.171 177.035 27.238 177.251 27.364Z" fill="#FFA43C"/>
<path d="M230.403 27.364L238.676 32.189C239.743 32.8072 241.056 31.8874 240.744 30.7566L238.347 22.1018C238.283 21.8619 238.293 21.6101 238.377 21.3754C238.461 21.1406 238.616 20.9325 238.823 20.775L246.243 15.0906C247.211 14.3518 246.719 12.859 245.455 12.7837L235.77 12.2107C235.506 12.1966 235.252 12.112 235.039 11.9675C234.827 11.8229 234.664 11.6245 234.572 11.3965L230.961 3.04329C230.866 2.8019 230.691 2.59337 230.462 2.44602C230.233 2.29866 229.96 2.21962 229.681 2.21962C229.401 2.21962 229.128 2.29866 228.899 2.44602C228.67 2.59337 228.496 2.8019 228.401 3.04329L224.789 11.3965C224.697 11.6245 224.535 11.8229 224.322 11.9675C224.11 12.112 223.855 12.1966 223.591 12.2107L213.907 12.7837C212.643 12.859 212.151 14.3518 213.119 15.0906L220.538 20.775C220.746 20.9325 220.9 21.1406 220.985 21.3754C221.069 21.6101 221.079 21.8619 221.014 22.1018L218.798 30.1233C218.421 31.4803 219.997 32.581 221.26 31.8422L228.959 27.364C229.174 27.238 229.425 27.171 229.681 27.171C229.937 27.171 230.187 27.238 230.403 27.364Z" stroke="#FFA43C" stroke-width="4.43794" stroke-linecap="round" stroke-linejoin="round"/>
</svg>
