<svg width="28" height="37" viewBox="0 0 28 37" fill="none" xmlns="http://www.w3.org/2000/svg">
<g clip-path="url(#clip0_106_208)">
<path d="M6.15305 14.6146C7.36447 14.6146 8.54869 15.0883 9.55595 15.9757C10.5632 16.8632 11.3483 18.1245 11.8119 19.6003C12.2755 21.0761 12.3967 22.7 12.1604 24.2667C11.9241 25.8334 11.3407 27.2725 10.4841 28.402C9.62751 29.5315 8.53613 30.3007 7.34799 30.6123C6.15985 30.924 4.9283 30.764 3.8091 30.1527C2.68989 29.5415 1.73329 28.5063 1.06026 27.1781C0.387228 25.8499 0.0280002 24.2884 0.0280002 22.6911L0 21.5373C0 17.2532 1.29063 13.1447 3.58797 10.1154C5.88531 7.08614 9.00117 5.38432 12.2501 5.38432V9.99945C11.1005 9.99537 9.96173 10.2918 8.89958 10.8717C7.83743 11.4516 6.873 12.3033 6.06205 13.3777C5.74686 13.7925 5.4561 14.2384 5.19229 14.7115C5.50555 14.6469 5.8258 14.6123 6.1513 14.6123L6.15305 14.6146ZM21.9032 14.6146C23.1146 14.6146 24.2988 15.0883 25.3061 15.9757C26.3133 16.8632 27.0984 18.1245 27.562 19.6003C28.0256 21.0761 28.1469 22.7 27.9105 24.2667C27.6742 25.8334 27.0908 27.2725 26.2342 28.402C25.3776 29.5315 24.2863 30.3007 23.0981 30.6123C21.91 30.924 20.6784 30.764 19.5592 30.1527C18.44 29.5415 17.4834 28.5063 16.8104 27.1781C16.1374 25.8499 15.7781 24.2884 15.7781 22.6911L15.7501 21.5373C15.7501 17.2532 17.0408 13.1447 19.3381 10.1154C21.6354 7.08614 24.7513 5.38432 28.0002 5.38432V9.99945C26.8506 9.99537 25.7119 10.2918 24.6497 10.8717C23.5876 11.4516 22.6231 12.3033 21.8122 13.3777C21.497 13.7925 21.2062 14.2384 20.9424 14.7115C21.2557 14.6469 21.5759 14.6123 21.9032 14.6123V14.6146Z" fill="black" fill-opacity="0.8"/>
</g>
<defs>
<clipPath id="clip0_106_208">
<rect width="27.3786" height="36.1014" fill="white" transform="scale(1.0227)"/>
</clipPath>
</defs>
</svg>
